<?xml version="1.0" encoding="UTF-8"?>
<svg id="Layer_1" data-name="Layer 1" xmlns="http://www.w3.org/2000/svg" viewBox="0 0 1027.55 800.04">
  <defs>
    <style>
      .cls-1, .cls-2, .cls-3, .cls-4, .cls-5, .cls-6 {
        stroke-miterlimit: 10;
      }

      .cls-1, .cls-3, .cls-4, .cls-5, .cls-6 {
        stroke: #fff;
      }

      .cls-1, .cls-7 {
        fill: #e03d3d;
      }

      .cls-8 {
        fill: #fac05e;
        opacity: .75;
      }

      .cls-9, .cls-10 {
        fill: #f0f1eb;
      }

      .cls-11, .cls-5, .cls-6 {
        fill: #d45e37;
      }

      .cls-12, .cls-4 {
        fill: #ff7142;
      }

      .cls-2 {
        fill: none;
        stroke: #f0f1eb;
        stroke-width: 1.07px;
      }

      .cls-10, .cls-13 {
        opacity: .3;
      }

      .cls-3, .cls-4, .cls-6 {
        stroke-width: .75px;
      }

      .cls-3, .cls-14 {
        fill: #ffe380;
      }

      .cls-15 {
        fill: #fff;
      }

      .cls-16 {
        fill: #612f2f;
      }
    </style>
  </defs>
  <path class="cls-8" d="M1027.49,20.82s.06,778.08.06,778.08c-186.19,6.85-390.56-19.4-409.15-21.94-103.47-14.1-206.23-34.6-305.95-65.86-96.65-30.3-178.39-66.29-241.85-148.6C-39.34,419.91-30.77,212.96,166.9,87.36,339.36-22.21,565.36-.56,760.74,6.6c15.91.58,266.76,14.22,266.76,14.22Z"/>
  <g>
    <g>
      <path class="cls-10" d="M739.65,491.51c-.4-2.97-3.43-5.28-7.11-5.28-.62,0-1.22.07-1.79.2-1.81-2.27-4.84-3.82-8.36-3.96-5.88-.24-10.88,3.54-11.16,8.43-.07,1.14.14,2.23.55,3.25-3.04.69-5.28,2.99-5.28,5.74,0,3.15,2.94,5.72,6.66,5.93l-23.13,17.44v-19.83l1.45-4.4h0s16.88-14.91,16.88-14.91c1.24,0,2.5-.11,3.76-.35,8.73-1.7,14.16-8.97,12.11-16.23-.8-2.84-2.62-5.24-5.06-7.04,1.35-2,1.85-4.4,1.17-6.81-1.44-5.12-7.59-8.3-13.75-7.1-.51.1-1,.24-1.48.39-4.31-4.82-11.79-7.33-19.28-5.88-5.38,1.05-9.65,3.94-12.12,7.67-2.5-1.31-5.6-1.82-8.7-1.22-6.15,1.2-9.97,6.32-8.53,11.44.04.14.09.26.14.4-4.74,2.04-7.9,5.96-8.42,10.34-4.18,2.06-6.46,6.21-5.3,10.35,1.44,5.12,7.59,8.3,13.75,7.1,2.48-.48,4.57-1.61,6.1-3.11,1.28.07,2.58.01,3.89-.19l11.07,24.58v10.88l-15.47-7.82c2.61-1.15,4.4-3.44,4.4-6.07,0-3.8-3.7-6.87-8.26-6.87,0-2.68-2.62-4.86-5.84-4.86s-5.84,2.18-5.84,4.86c0,.52.1,1.02.28,1.49-.33-.04-.66-.07-1-.07-3.62,0-6.56,2.44-6.56,5.46,0,1.97,1.26,3.69,3.15,4.65,0,.07-.01.14-.01.21,0,2.68,2.62,4.86,5.84,4.86,2.81,0,5.15-1.65,5.71-3.84.7.35,1.47.61,2.28.78l21.32,14.87v32.51h12.31v-28.36l16.47-12,18.21-10.69c.23.01.45.03.68.03,3.8,0,7.12-1.72,8.9-4.27,1.1.46,2.34.73,3.66.73,4.5,0,8.14-3.03,8.14-6.77,0-3.26-2.76-5.97-6.44-6.62ZM696.72,483.12c.52-.67,1-1.37,1.38-2.11,1.7,1.17,3.67,2.04,5.79,2.56l-9.43,6.42,2.26-6.87ZM682.71,505.37l-9.12-18.23c3.69,2.04,8.33,2.86,12.99,1.96.5-.1.97-.23,1.45-.36l-5.32,16.63ZM708.93,514.75l8.67-9.29c1.03,1,2.33,1.8,3.81,2.32l-12.48,6.97Z"/>
      <path class="cls-10" d="M1007.41,174.66v-14.78h-102.02v-26.4h-49.86v-17.53h-42.41v17.53h-13.18v26.4h-22.92v14.78h8.02v292.64h-8.02v14.78h8.02v77.4h48.72v-36.24h32.09v36.24h133.54v-77.4h8.02v-14.78h-8.02V174.66h8.02ZM826.3,450.61h-26.36v-37.01h26.36v37.01ZM826.3,391.97h-26.36v-37.01h26.36v37.01ZM826.3,333.33h-26.36v-37.01h26.36v37.01ZM826.3,274.7h-26.36v-37.01h26.36v37.01ZM799.94,209.58v-18.22h52.73v18.22h-52.73ZM865.85,450.61h-26.36v-37.01h26.36v37.01ZM865.85,391.97h-26.36v-37.01h26.36v37.01ZM865.85,333.33h-26.36v-37.01h26.36v37.01ZM865.85,274.7h-26.36v-37.01h26.36v37.01ZM865.85,191.35h52.73v18.22h-52.73v-18.22ZM905.39,450.61h-26.36v-37.01h26.36v37.01ZM905.39,391.97h-26.36v-37.01h26.36v37.01ZM905.39,333.33h-26.36v-37.01h26.36v37.01ZM905.39,274.7h-26.36v-37.01h26.36v37.01ZM944.94,450.61h-26.36v-37.01h26.36v37.01ZM944.94,391.97h-26.36v-37.01h26.36v37.01ZM944.94,333.33h-26.36v-37.01h26.36v37.01ZM944.94,274.7h-26.36v-37.01h26.36v37.01ZM984.48,450.61h-26.36v-37.01h26.36v37.01ZM984.48,391.97h-26.36v-37.01h26.36v37.01ZM984.48,333.33h-26.36v-37.01h26.36v37.01ZM984.48,274.7h-26.36v-37.01h26.36v37.01ZM984.48,209.58h-52.73v-18.22h52.73v18.22Z"/>
      <path class="cls-10" d="M388.55,158.36l-50.5-32.46-31.4,20.19v-52.35h4.73v-6.35h-85.32v6.35h4.73v64.63h-18.66v6.35h5.31v20.97h-5.31v6.35h5.31v58.96h-5.31v6.35h5.31v302.13h81.51v-39.49h76.21v39.49h83.49v-302.13h5.31v-6.35h-5.31v-58.96h5.31v-6.35h-5.31v-20.97h5.31v-6.35h-75.42ZM259.88,494.06h-25.37v-35.89h25.37v35.89ZM259.88,441.97h-25.37v-35.89h25.37v35.89ZM259.88,389.88h-25.37v-35.89h25.37v35.89ZM259.88,337.79h-25.37v-35.89h25.37v35.89ZM248.91,264.11s13.27,18.96,10.62,25.29h-21.24c-2.65-6.32,10.62-25.29,10.62-25.29ZM259.88,236.18h-25.37v-35.89h25.37v35.89ZM292.11,494.06h-25.37v-35.89h25.37v35.89ZM292.11,441.97h-25.37v-35.89h25.37v35.89ZM292.11,389.88h-25.37v-35.89h25.37v35.89ZM292.11,337.79h-25.37v-35.89h25.37v35.89ZM279.42,264.11s13.27,18.96,10.62,25.29h-21.24c-2.65-6.32,10.62-25.29,10.62-25.29ZM292.11,236.18h-25.37v-35.89h25.37v35.89ZM295.94,128.42h-29.2v-24.3h29.2v24.3ZM357.02,201.41h40.5v33.7h-40.5v-33.7ZM405.34,289.4h-21.24c-2.65-6.32,10.62-25.29,10.62-25.29,0,0,13.27,18.96,10.62,25.29ZM364.2,264.11s13.27,18.96,10.62,25.29h-21.24c-2.65-6.32,10.62-25.29,10.62-25.29ZM324.33,494.06h-25.37v-35.89h25.37v35.89ZM324.33,441.97h-25.37v-35.89h25.37v35.89ZM324.33,389.88h-25.37v-35.89h25.37v35.89ZM324.33,337.79h-25.37v-35.89h25.37v35.89ZM309.93,264.11s13.27,18.96,10.62,25.29h-21.24c-2.65-6.32,10.62-25.29,10.62-25.29ZM324.33,236.18h-25.37v-35.89h25.37v35.89ZM338.05,150.95c-4.27,0-7.73-2.88-7.73-6.43s3.46-6.43,7.73-6.43,7.73,2.88,7.73,6.43-3.46,6.43-7.73,6.43ZM375.17,494.06h-25.37v-35.89h25.37v35.89ZM375.17,441.97h-25.37v-35.89h25.37v35.89ZM375.17,389.88h-25.37v-35.89h25.37v35.89ZM375.17,337.79h-25.37v-35.89h25.37v35.89ZM407.4,494.06h-25.37v-35.89h25.37v35.89ZM407.4,441.97h-25.37v-35.89h25.37v35.89ZM407.4,389.88h-25.37v-35.89h25.37v35.89ZM407.4,337.79h-25.37v-35.89h25.37v35.89ZM439.63,494.06h-25.37v-35.89h25.37v35.89ZM439.63,441.97h-25.37v-35.89h25.37v35.89ZM439.63,389.88h-25.37v-35.89h25.37v35.89ZM439.63,337.79h-25.37v-35.89h25.37v35.89ZM425.23,264.11s13.27,18.96,10.62,25.29h-21.24c-2.66-6.32,10.62-25.29,10.62-25.29ZM443.2,235.1h-40.5v-33.7h40.5v33.7Z"/>
      <path class="cls-10" d="M200.93,459.85c-1-8.48-9.6-15.11-20.06-15.11-3.01,0-5.86.56-8.42,1.55-3.39-2.06-7.55-3.29-12.07-3.29-11.32,0-20.49,7.63-20.49,17.05,0,1.01.13,1.99.33,2.95-2.88,2.23-4.7,5.41-4.7,8.94,0,5.76,4.8,10.58,11.25,11.87l10.31,33.25v3.59l-14.09-14.75h-.04c2.56-1.59,4.24-4.1,4.24-6.96,0-4.82-4.69-8.72-10.48-8.72-.33,0-.65.02-.97.04-1.42-2.26-4.26-3.8-7.53-3.8-3.88,0-7.15,2.17-8.17,5.13-.71-.23-1.48-.37-2.29-.37-3.43,0-6.22,2.32-6.22,5.17,0,1.4.67,2.67,1.76,3.6-2.43,1.25-4.05,3.47-4.05,6.02,0,3.91,3.81,7.07,8.5,7.07,1.23,0,2.39-.22,3.44-.61,1.86,1.4,4.31,2.25,7.01,2.25,5.17,0,9.45-3.12,10.31-7.21.25-.04.48-.11.72-.16l17.83,21.03v31.1h15.63v-45.19l18.03-20.22c6.19-1.12,10.98-5.35,11.89-10.63,5.21-2.03,8.82-6.41,8.82-11.51,0-5.64-4.41-10.41-10.52-12.08ZM161.21,515.71l-11.01-31.56c.1,0,.2-.01.3-.01,1.12,4.66,5.3,8.39,10.71,9.72v21.86ZM169.5,510.64l-2.61-16.33c3.75-.28,7.11-1.67,9.6-3.79,2.75,2.34,6.58,3.81,10.82,3.84l-17.81,16.28Z"/>
      <path class="cls-10" d="M562.49,461.63c0-8.44-8.22-15.27-18.36-15.27-1.74,0-3.41.21-5.01.59-2.08-5.54-8.29-9.56-15.63-9.56-9.04,0-16.37,6.1-16.37,13.62,0,.33.03.66.06.99-1.2-.31-2.47-.47-3.79-.47-7.1,0-12.85,4.79-12.85,10.69,0,1.77.53,3.44,1.45,4.92-3.06,2.48-4.97,5.93-4.97,9.77,0,7.52,7.33,13.62,16.37,13.62.06,0,.13-.01.19-.01l14.68,25.53v43.43h16.58v-43.76l13.67-25.25c8.31-.65,14.82-6.47,14.82-13.56,0-2.97-1.15-5.71-3.09-7.94,1.43-2.18,2.25-4.67,2.25-7.33ZM508.12,489.94c2.97-.75,5.58-2.18,7.57-4.08l4.36,22.7-11.93-18.62ZM526.85,510.64l-6.35-26.68c2.51,1.11,5.36,1.74,8.4,1.74,1.57,0,3.09-.18,4.54-.5l-6.59,25.44ZM537.74,499.93l.93-11.3c1.84.91,3.9,1.53,6.11,1.77l-7.04,9.53Z"/>
      <g class="cls-13">
        <polygon class="cls-9" points="1027.2 566.13 73.85 566.13 68.3 559.48 1027.2 559.48 1027.2 566.13"/>
      </g>
      <g>
        <path class="cls-10" d="M609.62,230.98c0-.07.02-.14.02-.21,0-5.6-10.24-10.14-22.87-10.14-4.06,0-7.87.48-11.18,1.3-5.15-4.51-15.68-7.61-27.87-7.61-13.77,0-25.43,3.95-29.59,9.43-.55-.02-1.09-.04-1.65-.04-11.4,0-20.64,4.1-20.64,9.15,0,2.1,1.61,4.02,4.29,5.57-8.91,1.13-15.44,4.77-15.44,9.08,0,5.22,9.55,9.46,21.34,9.46,3.32,0,6.45-.35,9.25-.94,7.07,3.03,18.96,5.02,32.45,5.02,11.09,0,21.09-1.35,28.23-3.51,5.34,1.51,11.68,2.4,18.49,2.4,19.02,0,34.45-6.84,34.45-15.27,0-6.01-7.87-11.2-19.27-13.69Z"/>
        <path class="cls-10" d="M161.85,309.68c2.73-.92,4.42-2.16,4.42-3.53,0-2.52-5.7-4.62-13.18-5.02.06-.23.12-.47.12-.71,0-5.05-13.37-9.14-29.86-9.14-8.5,0-16.15,1.09-21.58,2.84-4.23-1.43-10.18-2.33-16.8-2.33-12.82,0-23.2,3.35-23.2,7.48,0,.59.24,1.16.64,1.72-10.18.94-17.63,3.96-17.63,7.54,0,1.21.88,2.36,2.41,3.39-8.81.87-14.79,2.54-14.79,4.46,0,2.82,12.81,5.1,28.61,5.1,1.73,0,3.42-.03,5.07-.08,9.41,3.38,24.75,5.59,42.1,5.59s34-2.4,43.27-6.03c1.42.04,2.86.07,4.34.07,16.75,0,30.32-2.56,30.32-5.72,0-2.77-10.41-5.08-24.25-5.61Z"/>
        <path class="cls-10" d="M750.05,174.52c-.1-9-10.92-16.28-24.25-16.28-.03,0-.07,0-.1,0-1-7.69-10.54-13.73-22.18-13.73-6.34,0-12.04,1.8-16.1,4.67-3.22-1.11-6.86-1.75-10.72-1.75-13.06,0-23.65,7.16-23.65,16,0,.14.03.28.03.41-1.35-.27-2.78-.41-4.27-.41-7.58,0-13.72,3.71-13.72,8.29,0,1.5.67,2.91,1.83,4.12-8.66,1.09-15.02,4.66-15.02,8.91,0,5.12,9.2,9.26,20.55,9.26,6.74,0,12.7-1.47,16.44-3.73,3.11,1.43,6.86,2.27,10.9,2.27,5.34,0,10.18-1.46,13.69-3.82,4.28,2.97,10.26,4.82,16.88,4.82,5.87,0,11.23-1.46,15.35-3.86.72.16,1.46.32,2.23.46,1.78.41,3.65.7,5.59.82,3.16.34,6.55.53,10.09.53,16.63,0,30.1-4.14,30.1-9.25,0-3.25-5.44-6.1-13.68-7.75Z"/>
      </g>
    </g>
    <g>
      <path class="cls-1" d="M841.89,289.27c7.56,28.79-35.25,61.02-95.62,71.99-60.37,10.97-115.43-3.48-122.98-32.27-7.56-28.79,35.25-61.02,95.62-71.99,60.37-10.97,115.43,3.48,122.98,32.27Z"/>
      <path class="cls-15" d="M815.81,294c2.27,8.44-1.63,17.07-7.09,23.42-16.7,18.85-43.54,27.92-67.76,32.1-20.84,3.38-42.63,3.56-63.03-2.39-10-3.07-20.38-7.87-26.24-16.95-6.23-9.77-2.63-21.36,4.55-29.52,11.26-12.92,27.27-20.54,43.22-25.99,30.55-9.8,70.03-13.27,99.55,1.17,7.41,3.88,14.56,9.76,16.79,18.15h0ZM815.72,294.02c-2.28-8.32-9.39-14.18-16.82-17.93-22.75-10.88-50.12-10.35-74.54-6.48-23.97,4.33-50.75,13.07-67.52,31.55-5.45,6.21-9.33,14.68-7.17,23.01,2.22,8.29,9.27,14.12,16.63,17.94,22.4,11.1,50.35,10.62,74.54,6.67,23.8-4.39,51.02-13.16,67.69-31.52,5.51-6.24,9.39-14.84,7.19-23.23h0Z"/>
    </g>
    <g>
      <g>
        <g>
          <path class="cls-5" d="M185.85,489.44s20.75,21.29-83.16,88.8c-103.91,67.51-9.75,66.38,44.13,26.29,49.82-37.07,65.48-43.61,64.05-66.27-1.42-22.67-25.02-48.81-25.02-48.81Z"/>
          <path class="cls-11" d="M540.88,535.17s133.75-124.89-16.42-135.65c-115.74-8.29-18.95,55.66-18.95,55.66,0,0-34.16-35.53,8.54-31.98,42.7,3.55,72.9,56.56-6.97,91.64-79.86,35.08,33.8,20.32,33.8,20.32Z"/>
          <g>
            <path class="cls-4" d="M857.11,649.4c-17.08,8.31-74.05-47.36-120.12-39.08-77.29,13.93-111.75,14.74-125.37,14.03-.04,0-.09,0-.13-.04-5.34-.25-7.43-.78-7.64-.82.73,1.53,23.57,48.36,53.51,63.99,1.54.85,3.12,1.56,4.74,2.2,32.75,13,108.16,92.38,58.37,84.06-49.83-8.28-48.42-61.57-99.67-72.23-51.24-10.66-55.51-9.49-148.01-55.67-126.7,5.93-243.4-56.85-276.16-103.04-32.75-46.19,18.11-172.78,18.11-172.78,0,0,110-15.53,123.07,30.63,13.02,46.15,32.5,43.88,130.71,93.62,98.22,49.74,72.59,53.29,155.14,72.23,82.54,18.94,82.54,5.69,122.43,14.21,115.55,24.69,128.11,60.4,111.03,68.68Z"/>
            <path class="cls-14" d="M647.86,702.73c-48.42-14.25-160.86-59.23-160.86-59.23l116.79-20.04.04.04c.73,1.53,23.57,48.36,53.51,63.99,7.13,12.33,7.13,20.14-9.48,15.24Z"/>
            <path class="cls-15" d="M473.35,644.73c38.33-3.74,76.28-11.86,114.17-18.58,5.44-.91,10.87-1.83,16.32-2.65-43.29,8.13-86.42,18.34-130.49,21.23h0Z"/>
            <path class="cls-15" d="M506.57,513.45c11.78,5.85,23.21,14.68,34.31,21.73-11.78-5.84-23.2-14.68-34.31-21.73h0Z"/>
          </g>
        </g>
        <g>
          <path class="cls-12" d="M356.23,503.74s68,42.64,38.11,108.96c-29.89,66.32-81.12,103.04-130.44,90.01-41.07-10.85,73.66-68.69,76.5-113.69,2.85-45-.73-50.93-16.73-59.22-16-8.29,32.56-26.06,32.56-26.06Z"/>
          <path class="cls-15" d="M360.8,511.34c18.07,7.53,34.06,21.5,41.58,39.84,7.92,18.54,3.1,39.68-4.94,57.3-2.74,5.96-5.9,11.71-9.26,17.32-3.3,5.64-7.21,10.94-10.03,16.84,2.67-5.97,6.45-11.38,9.6-17.09,3.28-5.65,6.35-11.42,8.98-17.38,7.77-17.56,12.51-38.26,4.82-56.64-7.41-18.19-23.01-32.22-40.74-40.18h0Z"/>
          <path class="cls-15" d="M321.87,623.42c17.13-24.3,24.12-55.67,16.99-84.72,0,0,1.4,5.41,1.4,5.41l1.06,5.49c4.13,25.93-3.44,53.13-19.45,73.81h0Z"/>
        </g>
        <path class="cls-14" d="M250.82,403.91s-.81,47.13-20.03,60.01c-19.22,12.88-37.08-18.09-41.11,24.68-4.04,42.83,63.53,93.01,97.69,89.46,34.16-3.55,22.95-141.86-12.81-110.78s.39-57.76.39-57.76l-24.13-5.61Z"/>
      </g>
      <g>
        <path class="cls-16" d="M279.61,438.34c-64.5,0-82-26.13-82.45-26.61l5.6-18.43c2.11,2.22,73.66,41.75,139.92,14.38l6.87,14.4c-27.46,10.04-48.84,16.26-69.95,16.26Z"/>
        <g>
          <polygon class="cls-2" points="266.89 439.28 233.37 431.26 240.95 409.32 274.47 417.34 266.89 439.28"/>
          <line class="cls-2" x1="270.72" y1="428.18" x2="255.02" y2="424.21"/>
        </g>
      </g>
      <g>
        <path class="cls-4" d="M219.28,322.99s-7.46-20.32,22.43-45.19c29.89-24.87,77.59-22.62,77.59-22.62,0,0-7.37,19.99-45.8,49.59-38.43,29.61-54.22,18.21-54.22,18.21Z"/>
        <path class="cls-6" d="M306.23,322.99s38.43-17.03,66.9-8.74c28.47,8.29,42.7-11.84,42.7-11.84,0,0,15.66,54.48-71.17,42.64-86.83-11.84-38.43-22.05-38.43-22.05Z"/>
        <path class="cls-14" d="M342.39,328.23s14.37-6.9,36.79,0c22.42,6.9,34.7-10.87,34.7-10.87,0,0-1.54,29.76-62.42,23.09-7.54-9.5-9.06-12.23-9.06-12.23Z"/>
        <g>
          <path class="cls-4" d="M281.69,409.79c-34.8,0-63.8-20.89-69.69-48.43-.77-3.41-1.15-6.89-1.15-10.48,0-32.55,29.14-68.01,67.27-60.74,57.28,10.91,65.31,10.91,73.34,50.32.42,2.07,2.28,14.41,2.75,16.25,12.38,47.96-34.89,53.08-72.51,53.08Z"/>
          <path class="cls-3" d="M287.45,415.82c-34.8,0-69.56-26.93-75.45-54.46,7.77-29.49,51.88-6.29,78.06-12.01,29.24-6.39,58.2,3.7,64.14,7.35,47.72,23.02-29.13,59.12-66.75,59.12Z"/>
        </g>
        <path class="cls-14" d="M243.61,308.11s-7.57-22.89,59.94-43.6c-4.92,16.05-21.85,27.43-21.85,27.43,0,0-19.12,9.63-38.09,16.17Z"/>
        <g>
          <path class="cls-16" d="M359.68,368.41c-1.81,4.35-12.83,11.4-21.74,8.84-8.92-2.56-12.35-13.77-10.54-18.12,1.81-4.35,8.14-.11,17.05,2.45,8.92,2.56,17.04,2.48,15.23,6.83Z"/>
          <path class="cls-16" d="M332.82,390.65s-45.79-2.17-68.93-28.03c-17.44,14.02,30.04,86.66,68.93,28.03Z"/>
          <path class="cls-16" d="M303.51,337.09c-.45-12.99-12.8-12.72-22.48-10.24-3.24.79-6.45,1.77-9.67,2.79,3.02-1.5,6.14-2.83,9.4-3.81,4.86-1.44,10.24-2.43,15.25-.97,5.36,1.41,8.39,7.02,7.5,12.22h0Z"/>
          <path class="cls-16" d="M296.36,308.72c7.84-.69,16.77,3.53,19.79,11.11-4.33-6.77-11.97-10.28-19.79-11.11h0Z"/>
          <path class="cls-16" d="M334.4,328.09c2.73-3.41,7.87-4.7,11.98-3.38-4.31.14-8.28,1.09-11.98,3.38h0Z"/>
          <path class="cls-16" d="M351.46,349.37c-2.02-3.66-6.87-15.88-12.2-10.97-1.56,1.42-2.73,3.37-3.86,5.31.66-2.15,1.5-4.31,3.13-6.07,6.62-6.3,11.92,6.6,12.93,11.73h0Z"/>
          <g>
            <path class="cls-7" d="M313.21,398.78s39.04,19.69,41.65,45.75c2.62,26.05-20.44,34.35-41.65,0-21.21-34.35-29.68-51.22-29.68-51.22l29.68,5.48Z"/>
            <path class="cls-16" d="M298.63,396.09c16.86,11,29.14,29.25,35.51,48.14,0,0,1.26,3.85,1.26,3.85-7.52-20.03-19.48-39.01-36.77-51.99h0Z"/>
          </g>
        </g>
      </g>
    </g>
    <path class="cls-10" d="M610.76,533.36v-1.77h-1.88c0-4.12-3.71-7.49-8.5-8.01v-2.91h-2.5v2.91c-4.79.52-8.5,3.88-8.5,8.01h-1.88v1.77h1.88v24.31h-1.88v1.77h23.25v-1.77h-1.88v-24.31h1.88Z"/>
  </g>
</svg>